<svg xmlns="http://www.w3.org/2000/svg" width="256" height="256" aria-label="Deterministic pi-derived logo (contour)" viewBox="0 0 256 256"><g fill="none" stroke="#111" stroke-linecap="round" stroke-linejoin="round" stroke-width="1.63"><path d="m136.71 128-.63.25-.47.23-.31.21-.16.21.01.23.15.26.3.31.42.36.53.42.62.5.7.57.74.65.76.72.77.79.74.85.7.91.64.94.56.97.47.99.37.98.25.96.14.93.01.89-.1.82-.21.76-.32.68-.42.59-.51.5-.59.41-.64.31-.7.23-.74.15-.76.07h-.78l-.77-.05-.78-.1-.75-.13-.74-.15-.71-.16-.68-.16-.66-.14-.63-.12-.61-.09-.58-.06-.57-.02-.56.02-.55.05-.55.1-.55.12-.56.15-.57.17-.58.17-.59.18-.61.18-.62.15-.63.14-.65.09-.64.07-.65.01-.65-.03-.63-.09-.63-.14-.61-.19-.59-.24-.56-.3-.54-.34-.52-.37-.49-.42-.46-.44-.44-.46-.42-.48-.4-.49-.38-.49-.37-.5-.37-.49-.36-.49-.36-.48-.37-.48-.37-.47-.38-.46-.38-.47-.39-.46-.39-.47-.39-.48-.37-.49-.37-.51-.33-.52-.31-.55-.26-.56-.21-.59-.16-.6-.08-.62-.02-.63.07-.64.15-.64.24-.64.33-.62.42-.6.49-.58.57-.55.64-.51.69-.47.73-.42.77-.37.77-.33.77-.28.75-.24.72-.2.66-.18.6-.16.51-.16.43-.16.32-.18.22-.22.12-.26v-.33l-.09-.39-.2-.48-.27-.57-.36-.66-.41-.77-.46-.86-.48-.97-.48-1.05-.48-1.14-.43-1.2-.39-1.26-.32-1.29-.24-1.31-.14-1.31-.03-1.27.08-1.22.19-1.15.32-1.04.43-.93.54-.79.63-.63.73-.47.8-.29.86-.11.91.08.92.25.94.43.93.59.9.73.86.86.82.95.75 1.04.68 1.09.62 1.11.55 1.11.48 1.08.41 1.02.37.95.33.84.3.72.29.59.29.44.31.29.35.15.39-.01.47-.14.54-.27.62-.39.72-.47.81-.55.9-.6.98-.62 1.07-.62 1.13-.59 1.19-.54 1.22-.47 1.23-.38 1.22-.26 1.19-.14 1.14-.01 1.05.13.95.28.83.42.68.55.52.68.36.79.17.88-.01.97-.2 1.03-.37 1.06-.55 1.09-.71 1.09-.85 1.07-.97 1.03-1.06.97-1.14.91-1.19.84-1.2.76-1.19.66-1.16.59-1.09.5-1 .42-.9.35z"/><path d="m146.46 128.08-.74.52-.57.48-.39.47-.21.46-.03.49.15.52.31.58.45.63.57.72.68.79.75.89.81.97.82 1.05.82 1.14.79 1.2.73 1.27.65 1.31.56 1.33.43 1.35.31 1.34.18 1.32.02 1.28-.12 1.21-.26 1.14-.41 1.06-.53.95-.66.85-.77.73-.86.62-.95.51-1 .39-1.06.29-1.09.2-1.11.11-1.11.04-1.11-.02-1.09-.07-1.08-.09-1.04-.12-1.02-.11-.99-.11-.95-.08-.94-.06-.9-.03-.89.01-.88.06-.87.09-.86.12-.87.16-.88.18-.89.2-.91.2-.92.19-.94.19-.95.15-.96.12-.97.08-.98.02-.98-.04-.97-.11-.96-.17-.95-.24-.92-.31-.9-.38-.86-.44-.84-.51-.8-.55-.76-.6-.73-.65-.7-.67-.67-.7-.64-.72-.62-.72-.6-.74-.59-.73-.58-.74-.58-.73-.57-.73-.58-.72-.58-.73-.58-.73-.58-.73-.58-.74-.56-.76-.55-.77-.52-.8-.49-.82-.45-.84-.39-.88-.32-.9-.24-.92-.16-.94-.07-.96.04-.97.14-.97.26-.97.36-.96.48-.93.58-.91.67-.86.76-.82.83-.77.89-.71.93-.66.95-.6.95-.55.94-.5.9-.45.84-.42.77-.4.68-.39.58-.4.47-.41.35-.46.23-.5.11-.58v-.65l-.12-.76-.21-.85-.3-.97-.36-1.08-.41-1.19-.43-1.31-.43-1.41-.41-1.51-.37-1.58-.3-1.64-.21-1.67-.11-1.7v-1.67l.14-1.64.27-1.57.42-1.47.56-1.35.7-1.2.84-1.04.95-.84 1.06-.63 1.16-.42 1.22-.2 1.28.02 1.31.25 1.33.46 1.31.65 1.28.83 1.24.99 1.18 1.11 1.11 1.22 1.03 1.28.95 1.32.86 1.32.79 1.29.71 1.23.65 1.15.6 1.02.57.9.55.74.56.58.58.4.62.24.68.06.75-.09.84-.24.94-.37 1.04-.47 1.15-.55 1.26-.61 1.35-.62 1.45-.62 1.52-.57 1.58-.52 1.62-.42 1.63-.3 1.61-.17 1.57-.02 1.49.15 1.4.32 1.27.49 1.12.66.94.83.74.98.54 1.12.32 1.24.09 1.33-.13 1.41-.35 1.46-.56 1.49-.76 1.49-.93 1.47-1.08 1.43-1.21 1.37-1.29 1.29-1.36 1.2-1.39 1.11-1.37 1-1.35.91-1.27.81-1.17.71-1.05.64z"/><path d="m156.22 128.16-.87.78-.67.74-.46.72-.26.72-.06.75.14.78.32.84.48.92.62 1 .73 1.1.81 1.19.86 1.3.89 1.39.87 1.48.83 1.55.77 1.63.66 1.67.55 1.71.41 1.71.25 1.7.09 1.67-.08 1.62-.26 1.55-.43 1.45-.59 1.35-.75 1.23-.9 1.11-1.03.97-1.14.83-1.24.69-1.31.56-1.38.44-1.41.32-1.44.22-1.45.13-1.45.06h-1.44l-1.41-.05-1.38-.06-1.35-.08-1.31-.07-1.29-.05-1.25-.02h-1.23l-1.21.05-1.19.09-1.19.12-1.19.16-1.19.19-1.2.21-1.21.23-1.23.22-1.25.21-1.26.19-1.28.16-1.3.11-1.3.05-1.31-.02-1.31-.09-1.3-.18-1.28-.26-1.27-.34-1.24-.43-1.2-.51-1.17-.6-1.12-.66-1.09-.74-1.04-.79-.99-.85-.96-.88-.92-.92-.88-.94-.86-.96-.83-.97-.81-.98-.8-.98-.79-.98-.79-.99-.78-.98-.78-.98-.78-.99-.77-1.01-.76-1.01-.74-1.04-.72-1.05-.69-1.09-.64-1.11-.58-1.15-.52-1.18-.43-1.21-.34-1.25-.24-1.26-.11-1.29v-1.3l.14-1.31.27-1.3.4-1.29.54-1.26.66-1.23.78-1.18.88-1.13.97-1.08 1.04-1 1.1-.95 1.13-.87 1.13-.81 1.12-.76 1.08-.7 1.03-.66.94-.64.85-.62.74-.63.61-.65.48-.69.35-.75.21-.83.08-.92-.04-1.02-.14-1.14-.24-1.27-.31-1.4-.35-1.53-.39-1.65-.37-1.77-.35-1.87-.3-1.95-.21-2.03-.11-2.06.01-2.07.15-2.05.31-2 .47-1.92.64-1.8.81-1.65.97-1.48 1.13-1.27 1.27-1.05 1.4-.81 1.5-.55 1.6-.29 1.65-.02 1.69.24 1.71.48 1.7.72 1.66.94 1.62 1.11 1.55 1.27 1.46 1.4 1.38 1.47 1.27 1.53 1.19 1.53 1.09 1.5 1.01 1.44.93 1.35.88 1.21.83 1.07.82.89.82.71.85.52.89.32.96.14 1.04-.05 1.14-.2 1.25-.35 1.37-.47 1.49-.55 1.62-.61 1.72-.63 1.83-.61 1.91-.57 1.98-.48 2.01-.38 2.02-.23 2-.08 1.95.11 1.86.3 1.74.51 1.59.7 1.4.91 1.2 1.11.97 1.28.72 1.45.47 1.59.19 1.7-.06 1.8-.33 1.85-.58 1.89-.8 1.89-1.02 1.88-1.19 1.82-1.34 1.76-1.45 1.67-1.53 1.57-1.57 1.46-1.56 1.34-1.53 1.23-1.45 1.12-1.35 1.01-1.21.92z"/><path d="m165.97 128.24-.98 1.04-.77 1-.54.98-.32.97-.08 1 .13 1.05.33 1.11.51 1.19.66 1.29.78 1.4.87 1.51.93 1.61.95 1.73.93 1.82.87 1.92.8 1.98.67 2.04.54 2.07.38 2.08.2 2.06.01 2.02-.2 1.97-.39 1.87-.59 1.77-.79 1.65-.97 1.51-1.13 1.36-1.29 1.2-1.42 1.04-1.53.89-1.62.73-1.7.58-1.74.45-1.77.32-1.79.22-1.79.13-1.77.07-1.75.01-1.71-.02-1.69-.03-1.64-.03-1.61-.02h-1.58l-1.55.05-1.53.07-1.51.12-1.51.16-1.5.2-1.51.22-1.52.24-1.53.26-1.56.24-1.57.23-1.6.2-1.61.16-1.63.09-1.63.03-1.64-.06-1.64-.15-1.63-.24-1.61-.34-1.58-.45-1.55-.55-1.51-.65-1.47-.74-1.42-.83-1.36-.92-1.32-.98-1.26-1.04-1.22-1.1-1.17-1.14-1.13-1.17-1.09-1.19-1.06-1.21-1.04-1.22-1.02-1.23-1-1.23-.99-1.24-.99-1.23-.98-1.25-.97-1.25-.97-1.27-.94-1.29-.93-1.31-.89-1.34-.85-1.38-.79-1.41-.72-1.45-.64-1.48-.55-1.53-.43-1.56-.31-1.6-.17-1.61-.02-1.64.13-1.63.28-1.64.44-1.62.6-1.59.74-1.55.88-1.5 1.01-1.44 1.11-1.38 1.2-1.3 1.26-1.23 1.3-1.15 1.32-1.08 1.3-1.01 1.27-.95 1.21-.9 1.12-.88 1.01-.85.89-.86.76-.89.61-.93.47-.99.31-1.08.17-1.18.04-1.3-.08-1.43-.18-1.57-.26-1.71-.3-1.86-.33-1.99-.33-2.13-.28-2.24-.23-2.33-.12-2.4-.01-2.45.14-2.45.29-2.43.48-2.36.67-2.26.86-2.13 1.05-1.96 1.24-1.75 1.43-1.52 1.59-1.25 1.73-.98 1.86-.68 1.96-.38 2.03-.07 2.07.23 2.1.51 2.08.79 2.05 1.03 1.99 1.25 1.91 1.42 1.82 1.57 1.72 1.67 1.61 1.73 1.5 1.75 1.4 1.71 1.3 1.65 1.22 1.54 1.15 1.41 1.11 1.24 1.08 1.05 1.09.84 1.11.63 1.16.41 1.24.21h1.33l1.44-.18 1.56-.33 1.7-.46 1.84-.55 1.97-.61 2.09-.64 2.21-.61 2.3-.55 2.37-.46 2.41-.32 2.42-.17 2.39.02 2.33.23 2.22.46 2.08.69 1.91.92 1.69 1.16 1.46 1.38 1.19 1.59.91 1.77.61 1.94.3 2.07-.01 2.18-.3 2.25-.59 2.29-.85 2.3-1.1 2.27-1.31 2.22-1.47 2.15-1.61 2.05-1.7 1.94-1.75 1.81-1.75 1.68-1.72 1.55-1.63 1.43-1.52 1.3-1.36 1.21z"/><path d="m175.73 128.32-1.11 1.31-.87 1.25-.62 1.23-.36 1.23-.11 1.26.12 1.31.34 1.38.54 1.47.7 1.58.84 1.69.93 1.82.99 1.94 1.01 2.06.98 2.17.92 2.27.82 2.34.7 2.4.53 2.44.34 2.44.15 2.43-.08 2.38-.3 2.3-.53 2.21-.76 2.08-.97 1.95-1.19 1.78-1.37 1.62-1.55 1.43-1.7 1.26-1.82 1.07-1.93.9-2.01.73-2.07.57-2.11.43-2.12.31-2.13.21-2.11.13-2.08.07-2.06.03h-2.01l-1.98.01-1.94.01-1.9.04-1.87.08-1.85.11-1.83.15-1.82.2-1.82.23-1.83.25-1.84.28-1.86.28-1.88.27-1.9.24-1.92.21-1.94.15-1.96.09h-1.97l-1.97-.1-1.97-.2-1.95-.31-1.94-.43-1.9-.55-1.86-.67-1.82-.78-1.77-.9-1.71-.99-1.65-1.09-1.59-1.18-1.54-1.24-1.47-1.31-1.42-1.36-1.37-1.39-1.33-1.43-1.29-1.45-1.26-1.46-1.24-1.48-1.22-1.48-1.2-1.49-1.19-1.49-1.18-1.51-1.17-1.51-1.15-1.54-1.14-1.56-1.1-1.59-1.06-1.62-1.01-1.67-.95-1.7-.86-1.75-.77-1.8-.65-1.84-.53-1.88-.38-1.92-.22-1.94-.05-1.97.12-1.97.29-1.97.48-1.95.66-1.92.83-1.87.98-1.82 1.13-1.76 1.25-1.68 1.35-1.59 1.43-1.51 1.48-1.43 1.5-1.34 1.49-1.27 1.45-1.2 1.38-1.15 1.3-1.11 1.18-1.09 1.05-1.09.9-1.12.74-1.16.58-1.24.42-1.33.26-1.44.11-1.57-.01-1.72-.12-1.87-.21-2.03-.25-2.19-.28-2.34-.27-2.48-.23-2.61-.15-2.71-.04-2.78.1-2.83.26-2.83.45-2.8.64-2.73.86-2.61 1.09-2.46 1.3-2.26 1.51-2.02 1.72-1.76 1.9-1.47 2.07-1.14 2.22-.82 2.32-.46 2.41-.13 2.45.22 2.48.55 2.47.85 2.43 1.13 2.36 1.38 2.29 1.58 2.17 1.75 2.07 1.86 1.94 1.94 1.82 1.95 1.7 1.93 1.6 1.86 1.5 1.74 1.42 1.6 1.38 1.41 1.35 1.2 1.35.98 1.38.74 1.43.5 1.52.28 1.61.05 1.75-.15 1.88-.31 2.02-.46 2.18-.55 2.33-.62 2.46-.63 2.59-.61 2.69-.54 2.77-.43 2.8-.28 2.82-.1 2.78.12 2.7.36 2.59.61 2.42.87 2.22 1.14 1.99 1.4 1.72 1.66 1.41 1.89 1.09 2.1.75 2.29.41 2.45.06 2.56-.28 2.64-.6 2.69-.91 2.7-1.17 2.68-1.42 2.62-1.61 2.53-1.77 2.43-1.87 2.31-1.93 2.16-1.94 2.02-1.9 1.88-1.82 1.73-1.68 1.6-1.53 1.48z"/><path d="m185.48 128.4-1.23 1.57-.96 1.51-.7 1.49-.41 1.48-.15 1.52.12 1.57.35 1.65.57 1.74.74 1.87.89 2 1 2.12 1.05 2.27 1.06 2.39 1.04 2.52.97 2.62.85 2.7.71 2.77.52 2.8.32 2.81.08 2.79-.15 2.73-.41 2.65-.67 2.53-.92 2.4-1.17 2.24-1.4 2.06-1.61 1.88-1.81 1.67-1.97 1.46-2.12 1.27-2.24 1.06-2.33.87-2.4.7-2.44.54-2.46.41-2.46.28-2.45.19-2.42.13-2.39.07-2.35.05-2.31.04-2.26.05-2.23.07-2.19.11-2.17.14-2.15.19-2.14.23-2.14.26-2.14.29-2.16.31-2.18.31-2.21.29-2.23.26-2.25.22-2.27.15-2.29.07-2.3-.02-2.3-.14-2.3-.25-2.28-.39-2.26-.51-2.22-.65-2.18-.79-2.12-.92-2.07-1.04-2-1.16-1.94-1.27-1.87-1.36-1.8-1.45-1.73-1.52-1.67-1.58-1.62-1.62-1.56-1.66-1.52-1.69-1.49-1.7-1.45-1.72-1.43-1.73-1.41-1.75-1.4-1.75-1.38-1.76-1.37-1.78-1.34-1.81-1.32-1.83-1.28-1.87-1.24-1.9-1.17-1.96-1.1-2-1-2.05-.89-2.1-.77-2.16-.61-2.2-.46-2.24-.27-2.27-.09-2.3.11-2.3.32-2.3.51-2.28.72-2.25.91-2.2 1.09-2.14 1.25-2.07 1.39-1.98 1.51-1.89 1.59-1.8 1.65-1.7 1.69-1.61 1.67-1.52 1.64-1.45 1.56-1.39 1.47-1.34 1.35-1.33 1.21-1.32 1.04-1.36.87-1.4.7-1.48.52-1.58.35-1.7.19-1.85.05-2-.06-2.17-.16-2.35-.2-2.52-.23-2.68-.22-2.84-.16-2.98-.08-3.09.05-3.16.2-3.21.39-3.21.59-3.18.81-3.09 1.06-2.96 1.3-2.78 1.55-2.56 1.79-2.31 2.01-2 2.22-1.67 2.41-1.32 2.56-.94 2.69-.56 2.78-.17 2.84.21 2.87.58 2.85.91 2.81 1.23 2.74 1.51 2.65 1.74 2.53 1.93 2.41 2.06 2.28 2.13 2.13 2.17 2.01 2.14 1.89 2.07 1.79 1.94 1.7 1.78 1.64 1.59 1.62 1.35 1.61 1.11 1.65.86 1.7.59 1.8.34 1.9.11 2.05-.12 2.19-.29 2.36-.45 2.52-.56 2.68-.62 2.83-.64 2.97-.61 3.08-.52 3.16-.41 3.21-.23 3.2-.02 3.17.21 3.08.48 2.95.76 2.77 1.06 2.54 1.36 2.28 1.65 1.97 1.93 1.64 2.19 1.27 2.44.9 2.64.51 2.81.13 2.94-.26 3.04-.61 3.09-.96 3.1-1.26 3.08-1.53 3.02-1.75 2.93-1.92 2.8-2.05 2.67-2.11 2.52-2.12 2.36-2.09 2.2-1.99 2.04-1.86 1.9-1.68 1.76z"/><path d="m195.24 128.48-1.35 1.83-1.07 1.77-.77 1.74-.47 1.74-.17 1.77.11 1.84.36 1.91.6 2.03.79 2.15.94 2.3 1.05 2.44 1.12 2.59 1.12 2.73 1.1 2.86 1.01 2.97.88 3.06.72 3.14.51 3.16.29 3.18.03 3.14-.24 3.09-.52 2.99-.8 2.87-1.09 2.71-1.36 2.54-1.61 2.34-1.85 2.13-2.07 1.9-2.25 1.68-2.42 1.45-2.54 1.23-2.65 1.02-2.73.83-2.77.64-2.79.5-2.81.36-2.78.26-2.76.17-2.73.13-2.68.08-2.63.08-2.59.09-2.55.1-2.52.14-2.48.18-2.47.22-2.46.26-2.46.3-2.47.32-2.48.34-2.5.34-2.53.31-2.55.29-2.58.22-2.6.15-2.63.06-2.63-.05-2.63-.18-2.63-.31-2.61-.45-2.58-.6-2.54-.75-2.49-.91-2.43-1.05-2.37-1.2-2.3-1.32-2.22-1.45-2.14-1.55-2.07-1.65-1.99-1.73-1.92-1.79-1.86-1.85-1.8-1.9-1.75-1.92-1.71-1.95-1.67-1.97-1.65-1.98-1.62-1.99-1.6-2.01-1.58-2.03-1.56-2.04-1.54-2.08-1.5-2.1-1.46-2.15-1.41-2.18-1.34-2.25-1.25-2.29-1.14-2.36-1.02-2.41-.87-2.47-.71-2.52-.53-2.56-.32-2.6-.12-2.63.1-2.64.33-2.63.55-2.61.78-2.58.99-2.53 1.19-2.45 1.38-2.38 1.53-2.29 1.66-2.18 1.76-2.08 1.83-1.98 1.86-1.87 1.86-1.78 1.82-1.7 1.75-1.63 1.65-1.58 1.51-1.56 1.36-1.56 1.19-1.58 1-1.64.82-1.73.62-1.83.43-1.97.27-2.11.12-2.3v-2.47l-.1-2.66-.16-2.85-.18-3.03-.16-3.2-.1-3.34-.01-3.46.14-3.55.3-3.59.51-3.6.74-3.55.99-3.45 1.25-3.31 1.52-3.11 1.8-2.86 2.05-2.58 2.31-2.24L96.33 38l2.74-1.49 2.92-1.07 3.05-.65 3.16-.22 3.22.2 3.25.6 3.24.99 3.19 1.33 3.12 1.64 3.02 1.89 2.89 2.1 2.75 2.26 2.6 2.34 2.46 2.38 2.31 2.35 2.19 2.28 2.06 2.14 1.98 1.97 1.91 1.76 1.88 1.51 1.88 1.24 1.92.97 1.97.68 2.08.41 2.19.16 2.35-.09 2.5-.28 2.69-.44 2.86-.56 3.04-.63 3.2-.64 3.35-.6 3.47-.52 3.56-.37 3.6-.18 3.6.04 3.56.31 3.46.6 3.31.92 3.11 1.24 2.86 1.57 2.57 1.9 2.23 2.21 1.86 2.5 1.46 2.76 1.04 2.99.62 3.18.19 3.33-.23 3.43-.63 3.49-1.01 3.51-1.34 3.48-1.64 3.41-1.89 3.32-2.08 3.19-2.22 3.03-2.29 2.87-2.31 2.7-2.27 2.52-2.18 2.35-2.03 2.19-1.84 2.05z"/><path d="m204.99 128.56-1.47 2.1-1.16 2.03-.85 1.99-.52 1.99-.2 2.03.1 2.09.37 2.19.63 2.31.83 2.44 1 2.59 1.11 2.75 1.17 2.91 1.19 3.07 1.15 3.2 1.05 3.33.92 3.43.73 3.49.51 3.54.25 3.54-.02 3.5-.32 3.44-.63 3.33-.94 3.2-1.25 3.03-1.55 2.83-1.83 2.62-2.09 2.39-2.33 2.13-2.53 1.89-2.71 1.64-2.85 1.4-2.97 1.17-3.05.95-3.11.75-3.13.59-3.14.44-3.12.32-3.1.23-3.06.17-3.02.13-2.96.11-2.92.12-2.87.14-2.84.17-2.8.22-2.79.25-2.78.3-2.77.33-2.79.36-2.8.36-2.82.37-2.86.34-2.88.3-2.91.23-2.93.15-2.95.04-2.97-.07-2.96-.22-2.96-.36-2.94-.52-2.9-.69-2.86-.85-2.81-1.03-2.74-1.19-2.66-1.34-2.59-1.49-2.51-1.62-2.42-1.75-2.33-1.85-2.25-1.94-2.17-2.01-2.1-2.08-2.04-2.13-1.98-2.16-1.93-2.19-1.89-2.21-1.86-2.24-1.83-2.24-1.81-2.27-1.78-2.28-1.76-2.31-1.73-2.34-1.69-2.38-1.64-2.42-1.58-2.48-1.49-2.52-1.41-2.6-1.28-2.65-1.14-2.72-.99-2.78-.8-2.84-.6-2.89-.38-2.93-.15-2.96.1-2.97.34-2.97.59-2.94.84-2.91 1.08-2.85 1.29-2.77 1.5-2.69 1.67-2.59 1.81-2.48 1.93-2.37 2.01-2.25 2.04-2.14 2.05-2.03 2-1.95 1.93-1.87 1.82-1.82 1.68-1.79 1.52-1.79 1.33-1.82 1.13-1.88.93-1.97.73-2.08.52-2.23.35-2.39.18-2.58.05-2.77-.04-2.98-.11-3.18-.13-3.38-.11-3.55-.04-3.71.07-3.84.22-3.93.41-3.97.63-3.98.89-3.92 1.16-3.82 1.45-3.65 1.74-3.44 2.04-3.17 2.33-2.85 2.6-2.49 2.86-2.09 3.07-1.65 3.27-1.21 3.42-.74 3.54-.27 3.6.19 3.64.64 3.62 1.05 3.58 1.43 3.49 1.77 3.38 2.05 3.25 2.28 3.09 2.45 2.94 2.55 2.78 2.59 2.61 2.56 2.48 2.49 2.35 2.34 2.25 2.16 2.19 1.93 2.14 1.66 2.15 1.38 2.17 1.08 2.25.77 2.36.48 2.48.2 2.65-.05 2.82-.26 3.01-.44 3.2-.56 3.4-.63 3.57-.65 3.73-.6 3.86-.5 3.95-.34 4-.14 4 .11 3.94.41 3.84.72 3.68 1.07 3.45 1.43 3.18 1.79 2.86 2.14 2.48 2.49 2.09 2.8 1.64 3.09 1.19 3.34.72 3.55.25 3.71-.2 3.83-.65 3.89-1.05 3.91-1.43 3.88-1.75 3.82-2.02 3.7-2.24 3.57-2.39 3.4-2.47 3.23-2.5 3.03-2.46 2.84-2.36 2.66-2.2 2.49-1.99 2.33z"/></g></svg>