<svg xmlns="http://www.w3.org/2000/svg" viewBox="0 0 256 256" width="256" height="256" role="img" aria-label="Deterministic pi-derived logo (contour)">
  <metadata>
    seed: Ege
    style: contour
    variant: 2
    loops: 8
    reference: pi-derived angular field drawn as nested off-centre iso-contours
    generator: tools/pi-scribble-logo.mjs
  </metadata>
  
  <g>
    <path d="M 136.71 128.00 L 136.08 128.25 L 135.61 128.48 L 135.30 128.69 L 135.14 128.90 L 135.15 129.13 L 135.30 129.39 L 135.60 129.70 L 136.02 130.06 L 136.55 130.48 L 137.17 130.98 L 137.87 131.55 L 138.61 132.20 L 139.37 132.92 L 140.14 133.71 L 140.88 134.56 L 141.58 135.47 L 142.22 136.41 L 142.78 137.38 L 143.25 138.37 L 143.62 139.35 L 143.87 140.31 L 144.01 141.24 L 144.02 142.13 L 143.92 142.95 L 143.71 143.71 L 143.39 144.39 L 142.97 144.98 L 142.46 145.48 L 141.87 145.89 L 141.23 146.20 L 140.53 146.43 L 139.79 146.58 L 139.03 146.65 L 138.25 146.65 L 137.48 146.60 L 136.70 146.50 L 135.95 146.37 L 135.21 146.22 L 134.50 146.06 L 133.82 145.90 L 133.16 145.76 L 132.53 145.64 L 131.92 145.55 L 131.34 145.49 L 130.77 145.47 L 130.21 145.49 L 129.66 145.54 L 129.11 145.64 L 128.56 145.76 L 128.00 145.91 L 127.43 146.08 L 126.85 146.25 L 126.26 146.43 L 125.65 146.61 L 125.03 146.76 L 124.40 146.90 L 123.75 146.99 L 123.11 147.06 L 122.46 147.07 L 121.81 147.04 L 121.18 146.95 L 120.55 146.81 L 119.94 146.62 L 119.35 146.38 L 118.79 146.08 L 118.25 145.74 L 117.73 145.37 L 117.24 144.95 L 116.78 144.51 L 116.34 144.05 L 115.92 143.57 L 115.52 143.08 L 115.14 142.59 L 114.77 142.09 L 114.40 141.60 L 114.04 141.11 L 113.68 140.63 L 113.31 140.15 L 112.94 139.68 L 112.56 139.22 L 112.18 138.75 L 111.79 138.29 L 111.40 137.82 L 111.01 137.34 L 110.64 136.85 L 110.27 136.34 L 109.94 135.82 L 109.63 135.27 L 109.37 134.71 L 109.16 134.12 L 109.00 133.52 L 108.92 132.90 L 108.90 132.27 L 108.97 131.63 L 109.12 130.99 L 109.36 130.35 L 109.69 129.73 L 110.11 129.13 L 110.60 128.55 L 111.17 128.00 L 111.81 127.49 L 112.50 127.02 L 113.23 126.60 L 114.00 126.23 L 114.77 125.90 L 115.54 125.62 L 116.29 125.38 L 117.01 125.18 L 117.67 125.00 L 118.27 124.84 L 118.78 124.68 L 119.21 124.52 L 119.53 124.34 L 119.75 124.12 L 119.87 123.86 L 119.87 123.53 L 119.78 123.14 L 119.58 122.66 L 119.31 122.09 L 118.95 121.43 L 118.54 120.66 L 118.08 119.80 L 117.60 118.83 L 117.12 117.78 L 116.64 116.64 L 116.21 115.44 L 115.82 114.18 L 115.50 112.89 L 115.26 111.58 L 115.12 110.27 L 115.09 109.00 L 115.17 107.78 L 115.36 106.63 L 115.68 105.59 L 116.11 104.66 L 116.65 103.87 L 117.28 103.24 L 118.01 102.77 L 118.81 102.48 L 119.67 102.37 L 120.58 102.45 L 121.50 102.70 L 122.44 103.13 L 123.37 103.72 L 124.27 104.45 L 125.13 105.31 L 125.95 106.26 L 126.70 107.30 L 127.38 108.39 L 128.00 109.50 L 128.55 110.61 L 129.03 111.69 L 129.44 112.71 L 129.81 113.66 L 130.14 114.50 L 130.44 115.22 L 130.73 115.81 L 131.02 116.25 L 131.33 116.54 L 131.68 116.69 L 132.07 116.68 L 132.54 116.54 L 133.08 116.27 L 133.70 115.88 L 134.42 115.41 L 135.23 114.86 L 136.13 114.26 L 137.11 113.64 L 138.18 113.02 L 139.31 112.43 L 140.50 111.89 L 141.72 111.42 L 142.95 111.04 L 144.17 110.78 L 145.36 110.64 L 146.50 110.63 L 147.55 110.76 L 148.50 111.04 L 149.33 111.46 L 150.01 112.01 L 150.53 112.69 L 150.89 113.48 L 151.06 114.36 L 151.05 115.33 L 150.85 116.36 L 150.48 117.42 L 149.93 118.51 L 149.22 119.60 L 148.37 120.67 L 147.40 121.70 L 146.34 122.67 L 145.20 123.58 L 144.01 124.42 L 142.81 125.18 L 141.62 125.84 L 140.46 126.43 L 139.37 126.93 L 138.37 127.35 L 137.47 127.70 L 136.71 128.00 Z" fill="none" stroke="currentColor" stroke-width="1.63" stroke-linecap="round" stroke-linejoin="round"/>
    <path d="M 146.46 128.08 L 145.72 128.60 L 145.15 129.08 L 144.76 129.55 L 144.55 130.01 L 144.52 130.50 L 144.67 131.02 L 144.98 131.60 L 145.43 132.23 L 146.00 132.95 L 146.68 133.74 L 147.43 134.63 L 148.24 135.60 L 149.06 136.65 L 149.88 137.79 L 150.67 138.99 L 151.40 140.26 L 152.05 141.57 L 152.61 142.90 L 153.04 144.25 L 153.35 145.59 L 153.53 146.91 L 153.55 148.19 L 153.43 149.40 L 153.17 150.54 L 152.76 151.60 L 152.23 152.55 L 151.57 153.40 L 150.80 154.13 L 149.94 154.75 L 148.99 155.26 L 147.99 155.65 L 146.93 155.94 L 145.84 156.14 L 144.73 156.25 L 143.62 156.29 L 142.51 156.27 L 141.42 156.20 L 140.34 156.11 L 139.30 155.99 L 138.28 155.88 L 137.29 155.77 L 136.34 155.69 L 135.40 155.63 L 134.50 155.60 L 133.61 155.61 L 132.73 155.67 L 131.86 155.76 L 131.00 155.88 L 130.13 156.04 L 129.25 156.22 L 128.36 156.42 L 127.45 156.62 L 126.53 156.81 L 125.59 157.00 L 124.64 157.15 L 123.68 157.27 L 122.71 157.35 L 121.73 157.37 L 120.75 157.33 L 119.78 157.22 L 118.82 157.05 L 117.87 156.81 L 116.95 156.50 L 116.05 156.12 L 115.19 155.68 L 114.35 155.17 L 113.55 154.62 L 112.79 154.02 L 112.06 153.37 L 111.36 152.70 L 110.69 152.00 L 110.05 151.28 L 109.43 150.56 L 108.83 149.82 L 108.24 149.09 L 107.66 148.35 L 107.08 147.62 L 106.51 146.89 L 105.93 146.17 L 105.35 145.44 L 104.77 144.71 L 104.19 143.98 L 103.61 143.24 L 103.05 142.48 L 102.50 141.71 L 101.98 140.91 L 101.49 140.09 L 101.04 139.25 L 100.65 138.37 L 100.33 137.47 L 100.09 136.55 L 99.93 135.61 L 99.86 134.65 L 99.90 133.68 L 100.04 132.71 L 100.30 131.74 L 100.66 130.78 L 101.14 129.85 L 101.72 128.94 L 102.39 128.08 L 103.15 127.26 L 103.98 126.49 L 104.87 125.78 L 105.80 125.12 L 106.75 124.52 L 107.70 123.97 L 108.64 123.47 L 109.54 123.02 L 110.38 122.60 L 111.15 122.20 L 111.83 121.81 L 112.41 121.41 L 112.88 121.00 L 113.23 120.54 L 113.46 120.04 L 113.57 119.46 L 113.57 118.81 L 113.45 118.05 L 113.24 117.20 L 112.94 116.23 L 112.58 115.15 L 112.17 113.96 L 111.74 112.65 L 111.31 111.24 L 110.90 109.73 L 110.53 108.15 L 110.23 106.51 L 110.02 104.84 L 109.91 103.14 L 109.91 101.47 L 110.05 99.83 L 110.32 98.26 L 110.74 96.79 L 111.30 95.44 L 112.00 94.24 L 112.84 93.20 L 113.79 92.36 L 114.85 91.73 L 116.01 91.31 L 117.23 91.11 L 118.51 91.13 L 119.82 91.38 L 121.15 91.84 L 122.46 92.49 L 123.74 93.32 L 124.98 94.31 L 126.16 95.42 L 127.27 96.64 L 128.30 97.92 L 129.25 99.24 L 130.11 100.56 L 130.90 101.85 L 131.61 103.08 L 132.26 104.23 L 132.86 105.25 L 133.43 106.15 L 133.98 106.89 L 134.54 107.47 L 135.12 107.87 L 135.74 108.11 L 136.42 108.17 L 137.17 108.08 L 138.01 107.84 L 138.95 107.47 L 139.99 107.00 L 141.14 106.45 L 142.40 105.84 L 143.75 105.22 L 145.20 104.60 L 146.72 104.03 L 148.30 103.51 L 149.92 103.09 L 151.55 102.79 L 153.16 102.62 L 154.73 102.60 L 156.22 102.75 L 157.62 103.07 L 158.89 103.56 L 160.01 104.22 L 160.95 105.05 L 161.69 106.03 L 162.23 107.15 L 162.55 108.39 L 162.64 109.72 L 162.51 111.13 L 162.16 112.59 L 161.60 114.08 L 160.84 115.57 L 159.91 117.04 L 158.83 118.47 L 157.62 119.84 L 156.33 121.13 L 154.97 122.33 L 153.58 123.44 L 152.21 124.44 L 150.86 125.35 L 149.59 126.16 L 148.42 126.87 L 147.37 127.51 L 146.46 128.08 Z" fill="none" stroke="currentColor" stroke-width="1.63" stroke-linecap="round" stroke-linejoin="round"/>
    <path d="M 156.22 128.16 L 155.35 128.94 L 154.68 129.68 L 154.22 130.40 L 153.96 131.12 L 153.90 131.87 L 154.04 132.65 L 154.36 133.49 L 154.84 134.41 L 155.46 135.41 L 156.19 136.51 L 157.00 137.70 L 157.86 139.00 L 158.75 140.39 L 159.62 141.87 L 160.45 143.42 L 161.22 145.05 L 161.88 146.72 L 162.43 148.43 L 162.84 150.14 L 163.09 151.84 L 163.18 153.51 L 163.10 155.13 L 162.84 156.68 L 162.41 158.13 L 161.82 159.48 L 161.07 160.71 L 160.17 161.82 L 159.14 162.79 L 158.00 163.62 L 156.76 164.31 L 155.45 164.87 L 154.07 165.31 L 152.66 165.63 L 151.22 165.85 L 149.77 165.98 L 148.32 166.04 L 146.88 166.04 L 145.47 165.99 L 144.09 165.93 L 142.74 165.85 L 141.43 165.78 L 140.14 165.73 L 138.89 165.71 L 137.66 165.71 L 136.45 165.76 L 135.26 165.85 L 134.07 165.97 L 132.88 166.13 L 131.69 166.32 L 130.49 166.53 L 129.28 166.76 L 128.05 166.98 L 126.80 167.19 L 125.54 167.38 L 124.26 167.54 L 122.96 167.65 L 121.66 167.70 L 120.35 167.68 L 119.04 167.59 L 117.74 167.41 L 116.46 167.15 L 115.19 166.81 L 113.95 166.38 L 112.75 165.87 L 111.58 165.27 L 110.46 164.61 L 109.37 163.87 L 108.33 163.08 L 107.34 162.23 L 106.38 161.35 L 105.46 160.43 L 104.58 159.49 L 103.72 158.53 L 102.89 157.56 L 102.08 156.58 L 101.28 155.60 L 100.49 154.62 L 99.70 153.63 L 98.92 152.65 L 98.14 151.67 L 97.36 150.68 L 96.59 149.67 L 95.83 148.66 L 95.09 147.62 L 94.37 146.57 L 93.68 145.48 L 93.04 144.37 L 92.46 143.22 L 91.94 142.04 L 91.51 140.83 L 91.17 139.58 L 90.93 138.32 L 90.82 137.03 L 90.82 135.73 L 90.96 134.42 L 91.23 133.12 L 91.63 131.83 L 92.17 130.57 L 92.83 129.34 L 93.61 128.16 L 94.49 127.03 L 95.46 125.95 L 96.50 124.95 L 97.60 124.00 L 98.73 123.13 L 99.86 122.32 L 100.98 121.56 L 102.06 120.86 L 103.09 120.20 L 104.03 119.56 L 104.88 118.94 L 105.62 118.31 L 106.23 117.66 L 106.71 116.97 L 107.06 116.22 L 107.27 115.39 L 107.35 114.47 L 107.31 113.45 L 107.17 112.31 L 106.93 111.04 L 106.62 109.64 L 106.27 108.11 L 105.88 106.46 L 105.51 104.69 L 105.16 102.82 L 104.86 100.87 L 104.65 98.84 L 104.54 96.78 L 104.55 94.71 L 104.70 92.66 L 105.01 90.66 L 105.48 88.74 L 106.12 86.94 L 106.93 85.29 L 107.90 83.81 L 109.03 82.54 L 110.30 81.49 L 111.70 80.68 L 113.20 80.13 L 114.80 79.84 L 116.45 79.82 L 118.14 80.06 L 119.85 80.54 L 121.55 81.26 L 123.21 82.20 L 124.83 83.31 L 126.38 84.58 L 127.84 85.98 L 129.22 87.45 L 130.49 88.98 L 131.68 90.51 L 132.77 92.01 L 133.78 93.45 L 134.71 94.80 L 135.59 96.01 L 136.42 97.08 L 137.24 97.97 L 138.06 98.68 L 138.91 99.20 L 139.80 99.52 L 140.76 99.66 L 141.80 99.61 L 142.94 99.41 L 144.19 99.06 L 145.56 98.59 L 147.05 98.04 L 148.67 97.43 L 150.39 96.80 L 152.22 96.19 L 154.13 95.62 L 156.11 95.14 L 158.12 94.76 L 160.14 94.53 L 162.14 94.45 L 164.09 94.56 L 165.95 94.86 L 167.69 95.37 L 169.28 96.07 L 170.68 96.98 L 171.88 98.09 L 172.85 99.37 L 173.57 100.82 L 174.04 102.41 L 174.23 104.11 L 174.17 105.91 L 173.84 107.76 L 173.26 109.65 L 172.46 111.54 L 171.44 113.42 L 170.25 115.24 L 168.91 117.00 L 167.46 118.67 L 165.93 120.24 L 164.36 121.70 L 162.80 123.04 L 161.27 124.27 L 159.82 125.39 L 158.47 126.40 L 157.26 127.32 L 156.22 128.16 Z" fill="none" stroke="currentColor" stroke-width="1.63" stroke-linecap="round" stroke-linejoin="round"/>
    <path d="M 165.97 128.24 L 164.99 129.28 L 164.22 130.28 L 163.68 131.26 L 163.36 132.23 L 163.28 133.23 L 163.41 134.28 L 163.74 135.39 L 164.25 136.58 L 164.91 137.87 L 165.69 139.27 L 166.56 140.78 L 167.49 142.39 L 168.44 144.12 L 169.37 145.94 L 170.24 147.86 L 171.04 149.84 L 171.71 151.88 L 172.25 153.95 L 172.63 156.03 L 172.83 158.09 L 172.84 160.11 L 172.64 162.08 L 172.25 163.95 L 171.66 165.72 L 170.87 167.37 L 169.90 168.88 L 168.77 170.24 L 167.48 171.44 L 166.06 172.48 L 164.53 173.37 L 162.91 174.10 L 161.21 174.68 L 159.47 175.13 L 157.70 175.45 L 155.91 175.67 L 154.12 175.80 L 152.35 175.87 L 150.60 175.88 L 148.89 175.86 L 147.20 175.83 L 145.56 175.80 L 143.95 175.78 L 142.37 175.78 L 140.82 175.83 L 139.29 175.90 L 137.78 176.02 L 136.27 176.18 L 134.77 176.38 L 133.26 176.60 L 131.74 176.84 L 130.21 177.10 L 128.65 177.34 L 127.08 177.57 L 125.48 177.77 L 123.87 177.93 L 122.24 178.02 L 120.61 178.05 L 118.97 177.99 L 117.33 177.84 L 115.70 177.60 L 114.09 177.26 L 112.51 176.81 L 110.96 176.26 L 109.45 175.61 L 107.98 174.87 L 106.56 174.04 L 105.20 173.12 L 103.88 172.14 L 102.62 171.10 L 101.40 170.00 L 100.23 168.86 L 99.10 167.69 L 98.01 166.50 L 96.95 165.29 L 95.91 164.07 L 94.89 162.84 L 93.89 161.61 L 92.90 160.37 L 91.91 159.14 L 90.93 157.89 L 89.96 156.64 L 88.99 155.37 L 88.05 154.08 L 87.12 152.77 L 86.23 151.43 L 85.38 150.05 L 84.59 148.64 L 83.87 147.19 L 83.23 145.71 L 82.68 144.18 L 82.25 142.62 L 81.94 141.02 L 81.77 139.41 L 81.75 137.77 L 81.88 136.14 L 82.16 134.50 L 82.60 132.88 L 83.20 131.29 L 83.94 129.74 L 84.82 128.24 L 85.83 126.80 L 86.94 125.42 L 88.14 124.12 L 89.40 122.89 L 90.70 121.74 L 92.02 120.66 L 93.32 119.65 L 94.59 118.70 L 95.80 117.80 L 96.92 116.92 L 97.93 116.07 L 98.82 115.21 L 99.58 114.32 L 100.19 113.39 L 100.66 112.40 L 100.97 111.32 L 101.14 110.14 L 101.18 108.84 L 101.10 107.41 L 100.92 105.84 L 100.66 104.13 L 100.36 102.27 L 100.03 100.28 L 99.70 98.15 L 99.42 95.91 L 99.19 93.58 L 99.07 91.18 L 99.06 88.73 L 99.20 86.28 L 99.49 83.85 L 99.97 81.49 L 100.64 79.23 L 101.50 77.10 L 102.55 75.14 L 103.79 73.39 L 105.22 71.87 L 106.81 70.62 L 108.54 69.64 L 110.40 68.96 L 112.36 68.58 L 114.39 68.51 L 116.46 68.74 L 118.56 69.25 L 120.64 70.04 L 122.69 71.07 L 124.68 72.32 L 126.59 73.74 L 128.41 75.31 L 130.13 76.98 L 131.74 78.71 L 133.24 80.46 L 134.64 82.17 L 135.94 83.82 L 137.16 85.36 L 138.31 86.77 L 139.42 88.01 L 140.50 89.06 L 141.59 89.90 L 142.70 90.53 L 143.86 90.94 L 145.10 91.15 L 146.43 91.15 L 147.87 90.97 L 149.43 90.64 L 151.13 90.18 L 152.97 89.63 L 154.94 89.02 L 157.03 88.38 L 159.24 87.77 L 161.54 87.22 L 163.91 86.76 L 166.32 86.44 L 168.74 86.27 L 171.13 86.29 L 173.46 86.52 L 175.68 86.98 L 177.76 87.67 L 179.67 88.59 L 181.36 89.75 L 182.82 91.13 L 184.01 92.72 L 184.92 94.49 L 185.53 96.43 L 185.83 98.50 L 185.82 100.68 L 185.52 102.93 L 184.93 105.22 L 184.08 107.52 L 182.98 109.79 L 181.67 112.01 L 180.20 114.16 L 178.59 116.21 L 176.89 118.15 L 175.14 119.96 L 173.39 121.64 L 171.67 123.19 L 170.04 124.62 L 168.52 125.92 L 167.16 127.13 L 165.97 128.24 Z" fill="none" stroke="currentColor" stroke-width="1.63" stroke-linecap="round" stroke-linejoin="round"/>
    <path d="M 175.73 128.32 L 174.62 129.63 L 173.75 130.88 L 173.13 132.11 L 172.77 133.34 L 172.66 134.60 L 172.78 135.91 L 173.12 137.29 L 173.66 138.76 L 174.36 140.34 L 175.20 142.03 L 176.13 143.85 L 177.12 145.79 L 178.13 147.85 L 179.11 150.02 L 180.03 152.29 L 180.85 154.63 L 181.55 157.03 L 182.08 159.47 L 182.42 161.91 L 182.57 164.34 L 182.49 166.72 L 182.19 169.02 L 181.66 171.23 L 180.90 173.31 L 179.93 175.26 L 178.74 177.04 L 177.37 178.66 L 175.82 180.09 L 174.12 181.35 L 172.30 182.42 L 170.37 183.32 L 168.36 184.05 L 166.29 184.62 L 164.18 185.05 L 162.06 185.36 L 159.93 185.57 L 157.82 185.70 L 155.74 185.77 L 153.68 185.80 L 151.67 185.80 L 149.69 185.81 L 147.75 185.82 L 145.85 185.86 L 143.98 185.94 L 142.13 186.05 L 140.30 186.20 L 138.48 186.40 L 136.66 186.63 L 134.83 186.88 L 132.99 187.16 L 131.13 187.44 L 129.25 187.71 L 127.35 187.95 L 125.43 188.16 L 123.49 188.31 L 121.53 188.40 L 119.56 188.40 L 117.59 188.30 L 115.62 188.10 L 113.67 187.79 L 111.73 187.36 L 109.83 186.81 L 107.97 186.14 L 106.15 185.36 L 104.38 184.46 L 102.67 183.47 L 101.02 182.38 L 99.43 181.20 L 97.89 179.96 L 96.42 178.65 L 95.00 177.29 L 93.63 175.90 L 92.30 174.47 L 91.01 173.02 L 89.75 171.56 L 88.51 170.08 L 87.29 168.60 L 86.09 167.11 L 84.90 165.62 L 83.72 164.11 L 82.55 162.60 L 81.40 161.06 L 80.26 159.50 L 79.16 157.91 L 78.10 156.29 L 77.09 154.62 L 76.14 152.92 L 75.28 151.17 L 74.51 149.37 L 73.86 147.53 L 73.33 145.65 L 72.95 143.73 L 72.73 141.79 L 72.68 139.82 L 72.80 137.85 L 73.09 135.88 L 73.57 133.93 L 74.23 132.01 L 75.06 130.14 L 76.04 128.32 L 77.17 126.56 L 78.42 124.88 L 79.77 123.29 L 81.20 121.78 L 82.68 120.35 L 84.18 119.01 L 85.67 117.74 L 87.12 116.54 L 88.50 115.39 L 89.80 114.28 L 90.98 113.19 L 92.03 112.10 L 92.93 110.98 L 93.67 109.82 L 94.25 108.58 L 94.67 107.25 L 94.93 105.81 L 95.04 104.24 L 95.03 102.52 L 94.91 100.65 L 94.70 98.62 L 94.45 96.43 L 94.17 94.09 L 93.90 91.61 L 93.67 89.00 L 93.52 86.29 L 93.48 83.51 L 93.58 80.68 L 93.84 77.85 L 94.29 75.05 L 94.93 72.32 L 95.79 69.71 L 96.88 67.25 L 98.18 64.99 L 99.69 62.97 L 101.41 61.21 L 103.31 59.74 L 105.38 58.60 L 107.60 57.78 L 109.92 57.32 L 112.33 57.19 L 114.78 57.41 L 117.26 57.96 L 119.73 58.81 L 122.16 59.94 L 124.52 61.32 L 126.81 62.90 L 128.98 64.65 L 131.05 66.51 L 132.99 68.45 L 134.81 70.40 L 136.51 72.33 L 138.11 74.19 L 139.61 75.93 L 141.03 77.53 L 142.41 78.94 L 143.76 80.14 L 145.11 81.12 L 146.49 81.86 L 147.92 82.36 L 149.44 82.64 L 151.05 82.69 L 152.80 82.54 L 154.68 82.23 L 156.70 81.77 L 158.88 81.22 L 161.21 80.60 L 163.67 79.97 L 166.26 79.36 L 168.95 78.82 L 171.72 78.39 L 174.52 78.11 L 177.34 78.01 L 180.12 78.13 L 182.82 78.49 L 185.41 79.10 L 187.83 79.97 L 190.05 81.11 L 192.04 82.51 L 193.76 84.17 L 195.17 86.06 L 196.26 88.16 L 197.01 90.45 L 197.42 92.90 L 197.48 95.46 L 197.20 98.10 L 196.60 100.79 L 195.69 103.49 L 194.52 106.17 L 193.10 108.79 L 191.49 111.32 L 189.72 113.75 L 187.85 116.06 L 185.92 118.22 L 183.98 120.24 L 182.08 122.12 L 180.26 123.85 L 178.58 125.45 L 177.05 126.93 L 175.73 128.32 Z" fill="none" stroke="currentColor" stroke-width="1.63" stroke-linecap="round" stroke-linejoin="round"/>
    <path d="M 185.48 128.40 L 184.25 129.97 L 183.29 131.48 L 182.59 132.97 L 182.18 134.45 L 182.03 135.97 L 182.15 137.54 L 182.50 139.19 L 183.07 140.93 L 183.81 142.80 L 184.70 144.80 L 185.70 146.92 L 186.75 149.19 L 187.81 151.58 L 188.85 154.10 L 189.82 156.72 L 190.67 159.42 L 191.38 162.19 L 191.90 164.99 L 192.22 167.80 L 192.30 170.59 L 192.15 173.32 L 191.74 175.97 L 191.07 178.50 L 190.15 180.90 L 188.98 183.14 L 187.58 185.20 L 185.97 187.08 L 184.16 188.75 L 182.19 190.21 L 180.07 191.48 L 177.83 192.54 L 175.50 193.41 L 173.10 194.11 L 170.66 194.65 L 168.20 195.06 L 165.74 195.34 L 163.29 195.53 L 160.87 195.66 L 158.48 195.73 L 156.13 195.78 L 153.82 195.82 L 151.56 195.87 L 149.33 195.94 L 147.14 196.05 L 144.97 196.19 L 142.82 196.38 L 140.68 196.61 L 138.54 196.87 L 136.40 197.16 L 134.24 197.47 L 132.06 197.78 L 129.85 198.07 L 127.62 198.33 L 125.37 198.55 L 123.10 198.70 L 120.81 198.77 L 118.51 198.75 L 116.21 198.61 L 113.91 198.36 L 111.63 197.97 L 109.37 197.46 L 107.15 196.81 L 104.97 196.02 L 102.85 195.10 L 100.78 194.06 L 98.78 192.90 L 96.84 191.63 L 94.97 190.27 L 93.17 188.82 L 91.44 187.30 L 89.77 185.72 L 88.15 184.10 L 86.59 182.44 L 85.07 180.75 L 83.58 179.05 L 82.13 177.33 L 80.70 175.60 L 79.29 173.85 L 77.89 172.10 L 76.51 170.34 L 75.14 168.56 L 73.80 166.75 L 72.48 164.92 L 71.20 163.05 L 69.96 161.15 L 68.79 159.19 L 67.69 157.19 L 66.69 155.14 L 65.80 153.04 L 65.03 150.88 L 64.42 148.68 L 63.96 146.44 L 63.69 144.17 L 63.60 141.87 L 63.71 139.57 L 64.03 137.27 L 64.54 134.99 L 65.26 132.74 L 66.17 130.54 L 67.26 128.40 L 68.51 126.33 L 69.90 124.35 L 71.41 122.46 L 73.00 120.66 L 74.65 118.96 L 76.34 117.35 L 78.01 115.83 L 79.65 114.38 L 81.21 112.99 L 82.68 111.65 L 84.03 110.32 L 85.24 109.00 L 86.28 107.64 L 87.15 106.24 L 87.85 104.76 L 88.37 103.18 L 88.72 101.48 L 88.91 99.63 L 88.96 97.63 L 88.90 95.46 L 88.74 93.11 L 88.54 90.59 L 88.31 87.91 L 88.09 85.07 L 87.93 82.09 L 87.85 79.00 L 87.90 75.84 L 88.10 72.63 L 88.49 69.42 L 89.08 66.24 L 89.89 63.15 L 90.95 60.19 L 92.25 57.41 L 93.80 54.85 L 95.59 52.54 L 97.60 50.54 L 99.82 48.87 L 102.23 47.55 L 104.79 46.61 L 107.48 46.05 L 110.26 45.88 L 113.10 46.09 L 115.97 46.67 L 118.82 47.58 L 121.63 48.81 L 124.37 50.32 L 127.02 52.06 L 129.55 53.99 L 131.96 56.05 L 134.24 58.18 L 136.37 60.35 L 138.38 62.49 L 140.27 64.56 L 142.06 66.50 L 143.76 68.28 L 145.40 69.87 L 147.02 71.22 L 148.63 72.33 L 150.28 73.19 L 151.98 73.78 L 153.78 74.12 L 155.68 74.23 L 157.73 74.11 L 159.92 73.82 L 162.28 73.37 L 164.80 72.81 L 167.48 72.19 L 170.31 71.55 L 173.28 70.94 L 176.36 70.42 L 179.52 70.01 L 182.73 69.78 L 185.93 69.76 L 189.10 69.97 L 192.18 70.45 L 195.13 71.21 L 197.90 72.27 L 200.44 73.63 L 202.72 75.28 L 204.69 77.21 L 206.33 79.40 L 207.60 81.84 L 208.50 84.48 L 209.01 87.29 L 209.14 90.23 L 208.88 93.27 L 208.27 96.36 L 207.31 99.46 L 206.05 102.54 L 204.52 105.56 L 202.77 108.49 L 200.85 111.29 L 198.80 113.96 L 196.69 116.48 L 194.57 118.84 L 192.48 121.04 L 190.49 123.08 L 188.63 124.98 L 186.95 126.74 L 185.48 128.40 Z" fill="none" stroke="currentColor" stroke-width="1.63" stroke-linecap="round" stroke-linejoin="round"/>
    <path d="M 195.24 128.48 L 193.89 130.31 L 192.82 132.08 L 192.05 133.82 L 191.58 135.56 L 191.41 137.33 L 191.52 139.17 L 191.88 141.08 L 192.48 143.11 L 193.27 145.26 L 194.21 147.56 L 195.26 150.00 L 196.38 152.59 L 197.50 155.32 L 198.60 158.18 L 199.61 161.15 L 200.49 164.21 L 201.21 167.35 L 201.72 170.51 L 202.01 173.69 L 202.04 176.83 L 201.80 179.92 L 201.28 182.91 L 200.48 185.78 L 199.39 188.49 L 198.03 191.03 L 196.42 193.37 L 194.57 195.50 L 192.50 197.40 L 190.25 199.08 L 187.83 200.53 L 185.29 201.76 L 182.64 202.78 L 179.91 203.61 L 177.14 204.25 L 174.35 204.75 L 171.54 205.11 L 168.76 205.37 L 166.00 205.54 L 163.27 205.67 L 160.59 205.75 L 157.96 205.83 L 155.37 205.92 L 152.82 206.02 L 150.30 206.16 L 147.82 206.34 L 145.35 206.56 L 142.89 206.82 L 140.43 207.12 L 137.96 207.44 L 135.48 207.78 L 132.98 208.12 L 130.45 208.43 L 127.90 208.72 L 125.32 208.94 L 122.72 209.09 L 120.09 209.15 L 117.46 209.10 L 114.83 208.92 L 112.20 208.61 L 109.59 208.16 L 107.01 207.56 L 104.47 206.81 L 101.98 205.90 L 99.55 204.85 L 97.18 203.65 L 94.88 202.33 L 92.66 200.88 L 90.52 199.33 L 88.45 197.68 L 86.46 195.95 L 84.54 194.16 L 82.68 192.31 L 80.88 190.41 L 79.13 188.49 L 77.42 186.54 L 75.75 184.57 L 74.10 182.59 L 72.48 180.60 L 70.88 178.59 L 69.30 176.56 L 67.74 174.52 L 66.20 172.44 L 64.70 170.34 L 63.24 168.19 L 61.83 166.01 L 60.49 163.76 L 59.24 161.47 L 58.10 159.11 L 57.08 156.70 L 56.21 154.23 L 55.50 151.71 L 54.97 149.15 L 54.65 146.55 L 54.53 143.92 L 54.63 141.28 L 54.96 138.65 L 55.51 136.04 L 56.29 133.46 L 57.28 130.93 L 58.47 128.48 L 59.85 126.10 L 61.38 123.81 L 63.04 121.63 L 64.80 119.55 L 66.63 117.57 L 68.49 115.70 L 70.35 113.92 L 72.17 112.22 L 73.92 110.59 L 75.57 109.01 L 77.08 107.45 L 78.44 105.89 L 79.63 104.31 L 80.63 102.67 L 81.45 100.94 L 82.07 99.11 L 82.50 97.14 L 82.77 95.03 L 82.89 92.73 L 82.89 90.26 L 82.79 87.60 L 82.63 84.75 L 82.45 81.72 L 82.29 78.52 L 82.19 75.18 L 82.18 71.72 L 82.32 68.17 L 82.62 64.58 L 83.13 60.98 L 83.87 57.43 L 84.86 53.98 L 86.11 50.67 L 87.63 47.56 L 89.43 44.70 L 91.48 42.12 L 93.79 39.88 L 96.33 38.00 L 99.07 36.51 L 101.99 35.44 L 105.04 34.79 L 108.20 34.57 L 111.42 34.77 L 114.67 35.37 L 117.91 36.36 L 121.10 37.69 L 124.22 39.33 L 127.24 41.22 L 130.13 43.32 L 132.88 45.58 L 135.48 47.92 L 137.94 50.30 L 140.25 52.65 L 142.44 54.93 L 144.50 57.07 L 146.48 59.04 L 148.39 60.80 L 150.27 62.31 L 152.15 63.55 L 154.07 64.52 L 156.04 65.20 L 158.12 65.61 L 160.31 65.77 L 162.66 65.68 L 165.16 65.40 L 167.85 64.96 L 170.71 64.40 L 173.75 63.77 L 176.95 63.13 L 180.30 62.53 L 183.77 62.01 L 187.33 61.64 L 190.93 61.46 L 194.53 61.50 L 198.09 61.81 L 201.55 62.41 L 204.86 63.33 L 207.97 64.57 L 210.83 66.14 L 213.40 68.04 L 215.63 70.25 L 217.49 72.75 L 218.95 75.51 L 219.99 78.50 L 220.61 81.68 L 220.80 85.01 L 220.57 88.44 L 219.94 91.93 L 218.93 95.44 L 217.59 98.92 L 215.95 102.33 L 214.06 105.65 L 211.98 108.84 L 209.76 111.87 L 207.47 114.74 L 205.16 117.44 L 202.89 119.96 L 200.71 122.31 L 198.68 124.50 L 196.84 126.55 L 195.24 128.48 Z" fill="none" stroke="currentColor" stroke-width="1.63" stroke-linecap="round" stroke-linejoin="round"/>
    <path d="M 204.99 128.56 L 203.52 130.66 L 202.36 132.69 L 201.51 134.68 L 200.99 136.67 L 200.79 138.70 L 200.89 140.79 L 201.26 142.98 L 201.89 145.29 L 202.72 147.73 L 203.72 150.32 L 204.83 153.07 L 206.00 155.98 L 207.19 159.05 L 208.34 162.25 L 209.39 165.58 L 210.31 169.01 L 211.04 172.50 L 211.55 176.04 L 211.80 179.58 L 211.78 183.08 L 211.46 186.52 L 210.83 189.85 L 209.89 193.05 L 208.64 196.08 L 207.09 198.91 L 205.26 201.53 L 203.17 203.92 L 200.84 206.05 L 198.31 207.94 L 195.60 209.58 L 192.75 210.98 L 189.78 212.15 L 186.73 213.10 L 183.62 213.85 L 180.49 214.44 L 177.35 214.88 L 174.23 215.20 L 171.13 215.43 L 168.07 215.60 L 165.05 215.73 L 162.09 215.84 L 159.17 215.96 L 156.30 216.10 L 153.46 216.27 L 150.66 216.49 L 147.87 216.74 L 145.09 217.04 L 142.32 217.37 L 139.53 217.73 L 136.73 218.09 L 133.91 218.46 L 131.05 218.80 L 128.17 219.10 L 125.26 219.33 L 122.33 219.48 L 119.38 219.52 L 116.41 219.45 L 113.45 219.23 L 110.49 218.87 L 107.55 218.35 L 104.65 217.66 L 101.79 216.81 L 98.98 215.78 L 96.24 214.59 L 93.58 213.25 L 90.99 211.76 L 88.48 210.14 L 86.06 208.39 L 83.73 206.54 L 81.48 204.60 L 79.31 202.59 L 77.21 200.51 L 75.17 198.38 L 73.19 196.22 L 71.26 194.03 L 69.37 191.82 L 67.51 189.58 L 65.68 187.34 L 63.87 185.07 L 62.09 182.79 L 60.33 180.48 L 58.60 178.14 L 56.91 175.76 L 55.27 173.34 L 53.69 170.86 L 52.20 168.34 L 50.79 165.74 L 49.51 163.09 L 48.37 160.37 L 47.38 157.59 L 46.58 154.75 L 45.98 151.86 L 45.60 148.93 L 45.45 145.97 L 45.55 143.00 L 45.89 140.03 L 46.48 137.09 L 47.32 134.18 L 48.40 131.33 L 49.69 128.56 L 51.19 125.87 L 52.86 123.28 L 54.67 120.80 L 56.60 118.43 L 58.61 116.18 L 60.65 114.04 L 62.70 112.01 L 64.70 110.06 L 66.63 108.19 L 68.45 106.37 L 70.13 104.58 L 71.65 102.79 L 72.98 100.97 L 74.11 99.09 L 75.04 97.12 L 75.77 95.04 L 76.29 92.81 L 76.64 90.42 L 76.82 87.84 L 76.87 85.07 L 76.83 82.09 L 76.72 78.91 L 76.59 75.53 L 76.48 71.98 L 76.44 68.27 L 76.51 64.43 L 76.73 60.50 L 77.14 56.53 L 77.77 52.55 L 78.66 48.63 L 79.82 44.81 L 81.27 41.16 L 83.01 37.72 L 85.05 34.55 L 87.38 31.70 L 89.98 29.21 L 92.84 27.12 L 95.91 25.47 L 99.18 24.26 L 102.60 23.52 L 106.14 23.25 L 109.74 23.44 L 113.38 24.08 L 117.00 25.13 L 120.58 26.56 L 124.07 28.33 L 127.45 30.38 L 130.70 32.66 L 133.79 35.11 L 136.73 37.66 L 139.51 40.25 L 142.12 42.81 L 144.60 45.30 L 146.95 47.64 L 149.20 49.80 L 151.39 51.73 L 153.53 53.39 L 155.68 54.77 L 157.85 55.85 L 160.10 56.62 L 162.46 57.10 L 164.94 57.30 L 167.59 57.25 L 170.41 56.99 L 173.42 56.55 L 176.62 55.99 L 180.02 55.36 L 183.59 54.71 L 187.32 54.11 L 191.18 53.61 L 195.13 53.27 L 199.13 53.13 L 203.13 53.24 L 207.07 53.65 L 210.91 54.37 L 214.59 55.44 L 218.04 56.87 L 221.22 58.66 L 224.08 60.80 L 226.56 63.29 L 228.65 66.09 L 230.29 69.18 L 231.48 72.52 L 232.20 76.07 L 232.45 79.78 L 232.25 83.61 L 231.60 87.50 L 230.55 91.41 L 229.12 95.29 L 227.37 99.11 L 225.35 102.81 L 223.11 106.38 L 220.72 109.78 L 218.25 113.01 L 215.75 116.04 L 213.29 118.88 L 210.93 121.54 L 208.73 124.03 L 206.74 126.36 L 204.99 128.56 Z" fill="none" stroke="currentColor" stroke-width="1.63" stroke-linecap="round" stroke-linejoin="round"/>
  </g>
</svg>
